# xmcd
#
# Track frame offsets: 
#        150
#        16952
#        30047
#        51667
#        67688
#        88135
#        105075
#        121362
#        138376
#
# Disc length: 2587 seconds
#
# Revision: 0
# Processed by: cddbd v1.5.1PL0 Copyright (c) Steve Scherf et al.
# Submitted via: ExactAudioCopy v0.95a5
#
DISCID=670a1909
DTITLE=Magic Dirt - Triple J Live At The Wireless (Tough Love Bonus Di
DTITLE=sc)
DYEAR=2004
DGENRE=Rock
TTITLE0=Girlboy
TTITLE1=Anita's Miracle Suntan Lotion
TTITLE2=All My Crushes
TTITLE3=Watch Out Boys
TTITLE4=Vulcanella
TTITLE5=That's Negative Baby
TTITLE6=Pace It
TTITLE7=The Kiss
TTITLE8=Pristine Christine
EXTD=
EXTT0=
EXTT1=
EXTT2=
EXTT3=
EXTT4=
EXTT5=
EXTT6=
EXTT7=
EXTT8=
PLAYORDER=
